<svg xmlns="http://www.w3.org/2000/svg" xmlns:xlink="http://www.w3.org/1999/xlink"><defs><clipPath id="clip0_0_21"><path fill="#fff" d="M0 0h203v39H0z"/></clipPath></defs><symbol id="chevron-left" viewBox="0 0 16 28"><g fill="none"><path d="M15.08.4L1.48 14l13.6 13.6" stroke="currentColor"/></g></symbol><symbol id="chevron-right" viewBox="0 0 16 28"><g fill="none"><path d="M.92 27.6L14.52 14 .92.4" stroke="currentColor"/></g></symbol><symbol id="close" viewBox="0 0 27 27"><g fill="none"><path d="M1 1l12.5 12.5M26 26L13.5 13.5m0 0L26 1 1 26" stroke="#8A8A8A" stroke-width="2"/></g></symbol><symbol id="logo" viewBox="0 0 203 39"><g fill="none"><g clip-path="url(#clip0_0_21)" fill="#47093E"><path d="M23.652 28.75c0 1.562-.294 2.944-.882 4.146a8.392 8.392 0 01-2.381 2.959 11.083 11.083 0 01-3.887 1.986c-1.413.396-3.206.59-5.379.59H0V6.954h9.287c2.288 0 4.002.086 5.135.252 1.14.165 2.223.525 3.263 1.058 1.148.612 1.987 1.382 2.51 2.34.517.95.782 2.087.782 3.411 0 1.497-.38 2.764-1.14 3.815-.76 1.051-1.772 1.893-3.034 2.527v.172c2.123.44 3.794 1.368 5.013 2.8 1.226 1.426 1.836 3.233 1.836 5.42zm-7.014-14.188c0-.756-.129-1.403-.38-1.922-.25-.518-.66-.943-1.22-1.267-.659-.381-1.462-.611-2.402-.705-.94-.094-2.108-.137-3.5-.137H4.175v9.091h5.393c1.305 0 2.345-.064 3.12-.201a5.882 5.882 0 002.151-.835c.66-.417 1.126-.965 1.399-1.641.265-.677.401-1.469.401-2.383zm2.675 14.353c0-1.267-.186-2.274-.566-3.023-.38-.748-1.069-1.382-2.066-1.9-.674-.353-1.492-.583-2.453-.684-.96-.108-2.13-.158-3.506-.158H4.174v11.71h5.522c1.829 0 3.32-.093 4.49-.288 1.161-.187 2.122-.54 2.861-1.044.789-.554 1.363-1.18 1.728-1.886.359-.705.538-1.612.538-2.728zm30.924 9.516H29.576V6.954h20.661v3.721H33.742v8.63h16.495v3.722H33.742v11.69h16.495v3.715zm30.609 0h-4.174v-15.41H61.023v15.41H56.85V6.954h4.174v12.345h15.649V6.954h4.174V38.43zm33.154 0h-4.446l-3.077-8.774H92.916l-3.077 8.774h-4.231L97.025 6.954h5.558L114 38.43zm-8.807-12.366L99.7 10.61l-5.515 15.455h11.008zm34.08-9.595c0 1.396-.244 2.685-.724 3.88-.488 1.187-1.162 2.224-2.03 3.095a10.359 10.359 0 01-3.837 2.44c-1.477.547-3.335.813-5.579.813h-4.174v11.733h-4.174V6.954h8.513c1.886 0 3.478.158 4.783.475 1.305.316 2.467.813 3.478 1.49 1.191.806 2.116 1.806 2.769 3.001.645 1.195.975 2.714.975 4.55zm-4.339.1c0-1.087-.194-2.03-.566-2.836a4.745 4.745 0 00-1.729-1.965c-.674-.439-1.441-.748-2.309-.943-.861-.187-1.958-.28-3.278-.28h-4.13v12.582h3.521c1.685 0 3.055-.151 4.109-.454 1.054-.302 1.908-.784 2.568-1.446.659-.677 1.126-1.39 1.398-2.138.28-.749.416-1.591.416-2.52zm32.036-9.617l-11.919 26.49c-.481 1.073-1.04 1.95-1.693 2.642a7.707 7.707 0 01-2.116 1.605 8.246 8.246 0 01-2.115.713 11.82 11.82 0 01-1.972.18c-.56 0-1.241-.03-2.044-.087a57.21 57.21 0 00-1.542-.1V34.48h.294c.215.028.566.072 1.054.136.488.065 1.054.094 1.685.094.28 0 .674-.022 1.184-.065a4.958 4.958 0 001.348-.295 4.686 4.686 0 001.334-.806c.444-.367.817-.9 1.126-1.605l.76-1.67-11.668-23.323h4.611l9.165 18.565 8.212-18.565h4.296v.007zm28.564 29.197c-.774.338-1.47.655-2.094.95-.624.295-1.441.604-2.452.928-.861.267-1.786.497-2.79.691a18.097 18.097 0 01-3.314.288c-2.273 0-4.346-.324-6.203-.964a12.668 12.668 0 01-4.855-3.016c-1.348-1.34-2.403-3.038-3.156-5.104-.76-2.066-1.14-4.463-1.14-7.198 0-2.591.366-4.91 1.097-6.954.732-2.044 1.779-3.772 3.163-5.182 1.334-1.368 2.948-2.412 4.834-3.132 1.893-.72 3.987-1.08 6.289-1.08 1.686 0 3.364.21 5.042.613 1.678.41 3.543 1.13 5.594 2.159v4.967h-.316c-1.728-1.454-3.442-2.505-5.142-3.167-1.7-.663-3.521-.994-5.45-.994-1.592 0-3.02.26-4.289.77-1.269.519-2.402 1.318-3.399 2.397-.969 1.059-1.722 2.397-2.267 4.01-.545 1.612-.81 3.477-.81 5.593 0 2.217.294 4.117.896 5.708.596 1.598 1.37 2.894 2.31 3.894a9.2 9.2 0 003.442 2.318c1.313.504 2.697.749 4.16.749 2.008 0 3.887-.346 5.644-1.037 1.757-.69 3.399-1.727 4.927-3.11h.294v4.903h-.015zM203 3.592c0 .993-.351 1.835-1.047 2.534-.696.705-1.542 1.05-2.532 1.05a3.444 3.444 0 01-2.524-1.05 3.468 3.468 0 01-1.047-2.534c0-.986.351-1.836 1.047-2.534C197.6.353 198.439 0 199.429 0c.989 0 1.828.353 2.531 1.05.696.706 1.04 1.549 1.04 2.542zm-.48 0c0-.857-.302-1.59-.911-2.21a2.965 2.965 0 00-2.188-.921c-.853 0-1.585.31-2.187.921a3.053 3.053 0 00-.911 2.21c0 .857.301 1.59.911 2.21a2.963 2.963 0 002.187.921c.854 0 1.585-.302 2.188-.921.609-.62.911-1.353.911-2.21zm-.789 1.821h-.926l-1.369-1.468h-.667v1.468h-.682V1.62h1.291c.259 0 .474.007.639.036.165.021.329.072.494.158a.942.942 0 01.381.345c.086.137.121.303.121.504 0 .267-.078.49-.236.67a1.56 1.56 0 01-.646.424l1.6 1.656zm-1.456-2.706a.63.63 0 00-.058-.267.417.417 0 00-.193-.194.771.771 0 00-.273-.094 2.488 2.488 0 00-.366-.021h-.616v1.281h.523c.172 0 .316-.014.445-.043a.688.688 0 00.301-.137.649.649 0 00.237-.525z"/><path d="M23.652 28.75c0 1.562-.294 2.944-.882 4.146a8.392 8.392 0 01-2.381 2.959 11.083 11.083 0 01-3.887 1.986c-1.413.396-3.206.59-5.379.59H0V6.954h9.287c2.288 0 4.002.086 5.135.252 1.14.165 2.223.525 3.263 1.058 1.148.612 1.987 1.382 2.51 2.34.517.95.782 2.087.782 3.411 0 1.497-.38 2.764-1.14 3.815-.76 1.051-1.772 1.893-3.034 2.527v.172c2.123.44 3.794 1.368 5.013 2.8 1.226 1.426 1.836 3.233 1.836 5.42zm-7.014-14.188c0-.756-.129-1.403-.38-1.922-.25-.518-.66-.943-1.22-1.267-.659-.381-1.462-.611-2.402-.705-.94-.094-2.108-.137-3.5-.137H4.175v9.091h5.393c1.305 0 2.345-.064 3.12-.201a5.882 5.882 0 002.151-.835c.66-.417 1.126-.965 1.399-1.641.265-.677.401-1.469.401-2.383zm2.675 14.353c0-1.267-.186-2.274-.566-3.023-.38-.748-1.069-1.382-2.066-1.9-.674-.353-1.492-.583-2.453-.684-.96-.108-2.13-.158-3.506-.158H4.174v11.71h5.522c1.829 0 3.32-.093 4.49-.288 1.161-.187 2.122-.54 2.861-1.044.789-.554 1.363-1.18 1.728-1.886.359-.705.538-1.612.538-2.728zm30.924 9.516H29.576V6.954h20.661v3.721H33.742v8.63h16.495v3.722H33.742v11.69h16.495v3.715zm30.609 0h-4.174v-15.41H61.023v15.41H56.85V6.954h4.174v12.345h15.649V6.954h4.174V38.43zm33.154 0h-4.446l-3.077-8.774H92.916l-3.077 8.774h-4.231L97.025 6.954h5.558L114 38.43zm-8.807-12.366L99.7 10.61l-5.515 15.455h11.008zm34.08-9.595c0 1.396-.244 2.685-.724 3.88-.488 1.187-1.162 2.224-2.03 3.095a10.359 10.359 0 01-3.837 2.44c-1.477.547-3.335.813-5.579.813h-4.174v11.733h-4.174V6.954h8.513c1.886 0 3.478.158 4.783.475 1.305.316 2.467.813 3.478 1.49 1.191.806 2.116 1.806 2.769 3.001.645 1.195.975 2.714.975 4.55zm-4.339.1c0-1.087-.194-2.03-.566-2.836a4.745 4.745 0 00-1.729-1.965c-.674-.439-1.441-.748-2.309-.943-.861-.187-1.958-.28-3.278-.28h-4.13v12.582h3.521c1.685 0 3.055-.151 4.109-.454 1.054-.302 1.908-.784 2.568-1.446.659-.677 1.126-1.39 1.398-2.138.28-.749.416-1.591.416-2.52zm32.036-9.617l-11.919 26.49c-.481 1.073-1.04 1.95-1.693 2.642a7.707 7.707 0 01-2.116 1.605 8.246 8.246 0 01-2.115.713 11.82 11.82 0 01-1.972.18c-.56 0-1.241-.03-2.044-.087a57.21 57.21 0 00-1.542-.1V34.48h.294c.215.028.566.072 1.054.136.488.065 1.054.094 1.685.094.28 0 .674-.022 1.184-.065a4.958 4.958 0 001.348-.295 4.686 4.686 0 001.334-.806c.444-.367.817-.9 1.126-1.605l.76-1.67-11.668-23.323h4.611l9.165 18.565 8.212-18.565h4.296v.007zm28.564 29.197c-.774.338-1.47.655-2.094.95-.624.295-1.441.604-2.452.928-.861.267-1.786.497-2.79.691a18.097 18.097 0 01-3.314.288c-2.273 0-4.346-.324-6.203-.964a12.668 12.668 0 01-4.855-3.016c-1.348-1.34-2.403-3.038-3.156-5.104-.76-2.066-1.14-4.463-1.14-7.198 0-2.591.366-4.91 1.097-6.954.732-2.044 1.779-3.772 3.163-5.182 1.334-1.368 2.948-2.412 4.834-3.132 1.893-.72 3.987-1.08 6.289-1.08 1.686 0 3.364.21 5.042.613 1.678.41 3.543 1.13 5.594 2.159v4.967h-.316c-1.728-1.454-3.442-2.505-5.142-3.167-1.7-.663-3.521-.994-5.45-.994-1.592 0-3.02.26-4.289.77-1.269.519-2.402 1.318-3.399 2.397-.969 1.059-1.722 2.397-2.267 4.01-.545 1.612-.81 3.477-.81 5.593 0 2.217.294 4.117.896 5.708.596 1.598 1.37 2.894 2.31 3.894a9.2 9.2 0 003.442 2.318c1.313.504 2.697.749 4.16.749 2.008 0 3.887-.346 5.644-1.037 1.757-.69 3.399-1.727 4.927-3.11h.294v4.903h-.015z"/></g></g></symbol><symbol id="menu-lines-mob" viewBox="0 0 320 329"><g fill="none"><path d="M318.5 1C222.779 29.61 82.358 28.033 1.5 1M320 102c-96.023-5.483-237.888-5.181-319 0m319 222.246c-91.161 8.579-242.994.86-320-7.246m320-141.21C228.839 191.473 77.006 178.819 0 164m320 92.237C228.839 236.02 77.006 242.897 0 262" stroke="#590D56"/></g></symbol><symbol id="menu-lines" viewBox="0 0 1440 679"><g fill="none"><path d="M0 175.235c116.668 39.274 305.231 81.112 443.346 39.548C651.274 152.21 827.213-49.982 1133.61 13.017c122.64 25.217 226.46 70.172 306.39 116.105M0 328.058c116.668-7.651 305.231-15.801 443.346-7.704 207.928 12.19 383.867 51.578 690.264 39.305 122.64-4.912 226.46-13.67 306.39-22.618M0 641.29c116.668 11.561 305.231 23.877 443.346 11.642 207.928-18.42 383.867-77.94 690.264-59.395 122.64 7.424 226.46 20.657 306.39 34.179" stroke="#590D56"/><path d="M0 419.529c116.668 21.082 305.231 43.54 443.346 21.229 207.928-33.589 383.867-142.125 690.264-108.308 122.64 13.537 226.46 37.669 306.39 62.325M0 560.335c116.668-26.523 305.231-54.777 443.346-26.708 207.928 42.257 383.867 178.803 690.264 136.258 122.64-17.03 226.46-47.39 306.39-78.409" stroke="#590D56"/></g></symbol></svg>